<svg width="30" height="40" viewBox="0 0 30 40" fill="none" xmlns="http://www.w3.org/2000/svg">
<path d="M3.125 14.8437C3.125 21.3055 8.38195 26.5625 14.8437 26.5625C21.3055 26.5625 26.5625 21.3055 26.5625 14.8437C26.5625 8.38195 21.3055 3.125 14.8437 3.125C8.38195 3.125 3.125 8.38195 3.125 14.8437ZM14.8437 4.6875C20.444 4.6875 25 9.24346 25 14.8437C25 20.444 20.444 25 14.8437 25C9.24346 25 4.6875 20.444 4.6875 14.8437C4.6875 9.24346 9.24346 4.6875 14.8437 4.6875Z" fill="#3961F0"/>
<path d="M7.60865 13.4509L10.6369 16.4346L9.94019 20.628C9.89167 20.9201 10.0122 21.2143 10.2518 21.3882C10.491 21.5622 10.8081 21.5857 11.0709 21.4496L14.8438 19.4903L18.6163 21.4496C18.877 21.5848 19.194 21.5637 19.4354 21.3882C19.675 21.2143 19.7955 20.9201 19.747 20.628L19.0503 16.4346L22.0785 13.4509C22.2894 13.2434 22.3648 12.9346 22.2732 12.6529C22.1817 12.3715 21.9391 12.1661 21.6464 12.1219L17.4438 11.4893L15.5423 7.68646C15.4102 7.42187 15.1395 7.25464 14.8438 7.25464C14.5477 7.25464 14.2773 7.42187 14.1449 7.68646L12.2434 11.4893L8.04078 12.1219C7.74812 12.1658 7.50551 12.3715 7.41395 12.6529C7.3224 12.9346 7.39808 13.2434 7.60865 13.4509ZM12.8772 12.9739C13.1287 12.9361 13.346 12.7783 13.4598 12.551L14.8438 9.78271L16.2277 12.551C16.3416 12.7783 16.5588 12.9361 16.8103 12.9739L19.8691 13.4344L17.6648 15.6058C17.4838 15.7843 17.4008 16.0397 17.4423 16.2906L17.9495 19.3426L15.2036 17.9169C15.0909 17.8583 14.9673 17.829 14.8438 17.829C14.7202 17.829 14.5966 17.8583 14.4836 17.9169L11.7377 19.3426L12.2449 16.2906C12.2867 16.0397 12.2037 15.7843 12.0224 15.6058L9.81843 13.4344L12.8772 12.9739Z" fill="#3961F0"/>
<path d="M15.625 0.781249C15.625 1.21277 15.2753 1.5625 14.8437 1.5625C14.4122 1.5625 14.0625 1.21277 14.0625 0.781249C14.0625 0.349731 14.4122 0 14.8437 0C15.2753 0 15.625 0.349731 15.625 0.781249Z" fill="#3961F0"/>
<path d="M11.1618 0.460534C4.58984 2.13808 0 8.05269 0 14.8438C0 19.0616 1.77337 23.0359 4.88647 25.8505L0.179748 34.1455C0.0283813 34.4125 0.0473022 34.7433 0.227966 34.9911C0.40863 35.2392 0.717468 35.3586 1.01807 35.296L6.36321 34.1861L8.24187 39.48C8.3438 39.7681 8.60473 39.9698 8.90929 39.9969C9.21386 40.0241 9.50591 39.8706 9.65697 39.6048L14.8437 30.4861L20.0302 39.6048C20.17 39.8504 20.43 39.9997 20.7089 39.9997C20.7318 39.9997 20.755 39.9988 20.7779 39.9969C21.0824 39.9698 21.3434 39.7677 21.4456 39.48L23.3239 34.1861L28.6691 35.296C28.9694 35.3583 29.2785 35.2389 29.4592 34.9911C29.6402 34.7433 29.6588 34.4125 29.5074 34.1455L24.8007 25.8505C27.9138 23.0359 29.6872 19.0616 29.6872 14.8438C29.6872 8.05269 25.0973 2.13808 18.5257 0.460534C18.1073 0.353723 17.6822 0.606103 17.5754 1.02419C17.4685 1.44228 17.7209 1.8677 18.139 1.97451C24.0185 3.47536 28.125 8.76741 28.125 14.8438C28.125 22.2391 22.1188 28.125 14.8437 28.125C7.56347 28.125 1.5625 22.2342 1.5625 14.8438C1.5625 8.76741 5.66863 3.47536 11.5481 1.97451C11.9662 1.8677 12.2186 1.44228 12.1121 1.02419C12.0053 0.606103 11.5802 0.353723 11.1618 0.460534ZM9.14336 37.348L7.60802 33.0215C7.47741 32.6535 7.09533 32.4383 6.71294 32.5177L2.39074 33.4152L6.11572 26.8503C8.28765 28.4293 10.8594 29.3912 13.5336 29.6292L9.14336 37.348ZM22.9742 32.5177C22.5921 32.4383 22.2098 32.6535 22.0791 33.0215L20.5441 37.348L16.1535 29.6292C18.8281 29.3912 21.3995 28.4293 23.5718 26.8503L27.2967 33.4152L22.9742 32.5177Z" fill="#3961F0"/>
</svg>
