<svg width="41" height="40" viewBox="0 0 41 40" fill="none" xmlns="http://www.w3.org/2000/svg">
<path d="M39.9191 15.3731L32.508 8.94451C32.3346 8.79413 32.0895 8.75887 31.8806 8.854C31.6718 8.94937 31.5379 9.15765 31.5379 9.38717V12.7344L28.5738 12.7353L28.5604 12.735C26.5495 12.6905 24.6126 13.1705 22.9067 14.1123V8.48554H26.5755C26.8064 8.48554 27.0157 8.34998 27.1102 8.13926C27.2047 7.92855 27.1667 7.68202 27.0131 7.50963L20.4987 0.196296C20.3875 0.0713874 20.2283 0 20.061 0C19.8937 0 19.7346 0.0713874 19.6232 0.196296L13.1089 7.50978C12.9553 7.68218 12.9173 7.92871 13.0117 8.13942C13.1062 8.35013 13.3156 8.4857 13.5465 8.4857H17.2152V11.0661C17.2152 11.3899 17.4776 11.6522 17.8013 11.6522C18.1249 11.6522 18.3873 11.3898 18.3873 11.0661V7.89963C18.3873 7.57592 18.1249 7.31357 17.8013 7.31357H14.8533L20.0607 1.46732L25.2682 7.31357H22.3204C21.9967 7.31357 21.7343 7.576 21.7343 7.89963V14.8597C21.3229 15.1598 20.929 15.4894 20.5564 15.8487C19.6591 16.714 18.9319 17.6931 18.3876 18.7586V13.4105C18.3876 13.0868 18.1251 12.8244 17.8015 12.8244C17.4778 12.8244 17.2154 13.0869 17.2154 13.4105V21.6383C15.5102 20.696 13.5743 20.2157 11.5626 20.2609L11.5484 20.2613L8.5831 20.2603V16.9131C8.5831 16.6836 8.44918 16.4751 8.24035 16.3799C8.03144 16.2846 7.78632 16.32 7.61299 16.4704L0.202095 22.899C0.0736599 23.0103 0 23.1718 0 23.3417C0 23.5115 0.0736599 23.673 0.202095 23.7843L2.48469 25.7643C2.72926 25.9765 3.09936 25.9501 3.31148 25.7056C3.52353 25.4611 3.49728 25.0909 3.25279 24.8788L1.48056 23.3415L7.41113 18.1971V20.846C7.41113 21.1696 7.6734 21.432 7.99704 21.4321L11.5552 21.4332C11.559 21.4332 11.5626 21.4332 11.5664 21.4332L11.5865 21.4327C14.2821 21.3739 16.8267 22.3626 18.7509 24.2182C20.6542 26.0536 21.7109 28.5035 21.7335 31.1249V32.5141C21.7335 32.8378 21.9959 33.1002 22.3196 33.1002C22.3197 33.1002 22.3199 33.1002 22.3201 33.1002C22.3203 33.1002 22.3205 33.1002 22.3207 33.1002C22.6444 33.1002 22.9067 32.8377 22.9067 32.5141V31.2105C22.9067 31.1819 22.9059 31.1534 22.9056 31.1248V23.6847C22.9056 22.2417 23.4821 20.8912 24.5287 19.8818C25.5749 18.8729 26.9567 18.3332 28.4231 18.3651C28.4272 18.3652 28.4314 18.3658 28.4356 18.3652L31.5379 18.364V22.2444C31.5379 22.4739 31.6718 22.6822 31.8806 22.7775C32.0895 22.8728 32.3346 22.8374 32.508 22.687L39.9191 16.2584C40.0474 16.1471 40.1211 15.9855 40.1211 15.8157C40.1211 15.6459 40.0475 15.4844 39.9191 15.3731ZM32.7101 20.9602V17.7779C32.7101 17.6224 32.6483 17.4734 32.5383 17.3634C32.4285 17.2536 32.2793 17.1918 32.124 17.1918H32.1238L28.4414 17.1932C26.6663 17.1591 24.9861 17.8126 23.715 19.0383C22.4371 20.2705 21.7334 21.9206 21.7334 23.6849V26.2942C21.1879 25.2239 20.4601 24.2383 19.5645 23.3746C19.2156 23.0381 18.8482 22.7275 18.4652 22.4428C18.7436 20.244 19.7445 18.2603 21.3703 16.6924C23.2945 14.8368 25.8382 13.8459 28.5409 13.9071C28.542 13.9071 28.5503 13.9074 28.5512 13.9074C28.5561 13.9075 28.5616 13.908 28.5661 13.9076L32.1243 13.9064C32.4479 13.9064 32.7102 13.6439 32.7102 13.3204V10.6715L38.6407 15.8159L32.7101 20.9602Z" fill="#3961F0"/>
<path d="M22.3206 34.2725C21.9969 34.2725 21.7345 34.5349 21.7345 34.8585V38.8277H18.3876V31.2106C18.3876 29.4463 17.6839 27.7962 16.4061 26.564C15.1352 25.3384 13.4549 24.6829 11.6797 24.7189L7.99728 24.7175H7.99704C7.84173 24.7175 7.69261 24.7793 7.58275 24.8891C7.4728 24.9991 7.41098 25.1481 7.41098 25.3036V28.486L5.02408 26.4155C4.77959 26.2035 4.40934 26.2298 4.19729 26.4742C3.98524 26.7187 4.01149 27.0889 4.25598 27.301L7.61292 30.213C7.78625 30.3634 8.03144 30.3987 8.24028 30.3035C8.44911 30.2082 8.58303 29.9999 8.58303 29.7704V25.8901L11.6852 25.8912C11.6899 25.8918 11.6936 25.8912 11.6978 25.8912C13.1632 25.8606 14.546 26.399 15.5922 27.4079C16.6388 28.4171 17.2153 29.7677 17.2153 31.2107V39.4139C17.2153 39.7376 17.4777 40 17.8013 40H22.3204C22.6441 40 22.9064 39.7376 22.9064 39.4139V34.8585C22.9067 34.5348 22.6443 34.2725 22.3206 34.2725Z" fill="#3961F0"/>
</svg>
