<svg width="41" height="40" viewBox="0 0 41 40" fill="none" xmlns="http://www.w3.org/2000/svg">
<path d="M10.0939 15.2081C9.72242 15.2081 9.42095 14.9066 9.42095 14.5352V12.0978C9.42095 11.8865 9.5192 11.6887 9.68743 11.5622C10.3738 11.0427 10.7668 10.2621 10.7668 9.42095V7.40217C10.7668 5.9177 9.55957 4.71047 8.0751 4.71047C6.59063 4.71047 5.3834 5.9177 5.3834 7.40217V9.42095C5.3834 10.2621 5.77639 11.0427 6.46277 11.5622C6.631 11.6887 6.72925 11.8879 6.72925 12.0992V14.5365C6.72925 14.908 6.42778 15.2094 6.05633 15.2094C5.68487 15.2094 5.3834 14.9066 5.3834 14.5352V12.4155C4.5234 11.647 4.03755 10.573 4.03755 9.42095V7.40217C4.03755 5.17614 5.84907 3.36462 8.0751 3.36462C10.3011 3.36462 12.1126 5.17614 12.1126 7.40217V9.42095C12.1126 10.573 11.6268 11.6456 10.7668 12.4155V14.5352C10.7668 14.9066 10.4653 15.2081 10.0939 15.2081Z" fill="#3961F0"/>
<path d="M8.75206 13.3912C8.43982 13.3912 8.15988 13.1719 8.09393 12.8542C8.01991 12.4895 8.25409 12.1342 8.61882 12.0602C9.86238 11.8031 10.7668 10.6941 10.7668 9.42097C10.7668 9.04952 11.0683 8.74805 11.4397 8.74805C11.8112 8.74805 12.1126 9.04952 12.1126 9.42097C12.1126 11.3294 10.756 12.9929 8.88799 13.3764C8.84223 13.3858 8.79781 13.3912 8.75206 13.3912Z" fill="#3961F0"/>
<path d="M12.616 16.2632C12.5272 16.2632 12.437 16.2457 12.3509 16.2081L9.82874 15.1246C9.48689 14.978 9.32943 14.5823 9.47613 14.2404C9.62148 13.8972 10.0172 13.7425 10.359 13.8878L12.8811 14.9712C13.223 15.1179 13.3804 15.5136 13.2337 15.8554C13.1247 16.1112 12.8757 16.2632 12.616 16.2632Z" fill="#3961F0"/>
<path d="M4.03755 24.4097C3.94469 24.4097 3.84913 24.3909 3.75896 24.3491L1.183 23.1782C0.464318 22.8499 0 22.1285 0 21.3398V19.4745C0 17.5876 1.11706 15.8918 2.84513 15.1543L5.7885 13.8771C6.13304 13.729 6.52603 13.8851 6.67407 14.2256C6.82077 14.5661 6.66465 14.9632 6.32415 15.1112L3.37808 16.3898C2.14259 16.9187 1.34585 18.1286 1.34585 19.4745V21.3398C1.34585 21.6023 1.50062 21.8445 1.74018 21.9535L4.31614 23.1244C4.65395 23.2778 4.80334 23.6775 4.64991 24.0154C4.53686 24.263 4.29191 24.4097 4.03755 24.4097Z" fill="#3961F0"/>
<path d="M10.6847 8.6269C9.34424 8.6269 8.06299 8.16527 6.97958 7.29181C6.69157 7.05898 6.64581 6.63638 6.87729 6.34703C7.11282 6.05767 7.53676 6.01326 7.82343 6.24609C8.68746 6.94189 9.713 7.31738 10.7641 7.28105C10.6995 5.85175 9.51785 4.71047 8.0751 4.71047C6.59063 4.71047 5.3834 5.9177 5.3834 7.40217V7.90014C5.3834 8.27159 5.08193 8.57306 4.71048 8.57306C4.33902 8.57306 4.03755 8.27294 4.03755 7.90014V7.40217C4.03755 5.17614 5.84907 3.36462 8.0751 3.36462C10.3011 3.36462 12.1126 5.17614 12.1126 7.40217V7.87322C12.1126 8.2043 11.8717 8.48558 11.546 8.53807C11.2352 8.58787 10.966 8.6269 10.6847 8.6269Z" fill="#3961F0"/>
<path d="M34.3192 15.2081C33.9477 15.2081 33.6462 14.9066 33.6462 14.5352V12.0978C33.6462 11.8865 33.7445 11.6887 33.9127 11.5622C34.5991 11.0427 34.9921 10.2621 34.9921 9.42095V7.40217C34.9921 5.9177 33.7849 4.71047 32.3004 4.71047C30.8159 4.71047 29.6087 5.9177 29.6087 7.40217V9.42095C29.6087 10.2621 30.0017 11.0427 30.6881 11.5622C30.8563 11.6887 30.9545 11.8879 30.9545 12.0992V14.5365C30.9545 14.908 30.6531 15.2094 30.2816 15.2094C29.9102 15.2094 29.6087 14.908 29.6087 14.5365V12.4168C28.7487 11.6483 28.2628 10.5743 28.2628 9.42229V7.40352C28.2628 5.17748 30.0744 3.36597 32.3004 3.36597C34.5264 3.36597 36.3379 5.17748 36.3379 7.40352V9.42229C36.3379 10.5743 35.8521 11.647 34.9921 12.4168V14.5365C34.9921 14.9066 34.6906 15.2081 34.3192 15.2081Z" fill="#3961F0"/>
<path d="M32.9774 13.3912C32.6651 13.3912 32.3852 13.1719 32.3192 12.8542C32.2452 12.4895 32.4794 12.1342 32.8441 12.0602C34.0877 11.8031 34.9921 10.6941 34.9921 9.42097C34.9921 9.04952 35.2936 8.74805 35.665 8.74805C36.0365 8.74805 36.3379 9.04952 36.3379 9.42097C36.3379 11.3294 34.9813 12.9929 33.1133 13.3764C33.0675 13.3858 33.0231 13.3912 32.9774 13.3912Z" fill="#3961F0"/>
<path d="M27.9573 16.1785C27.6976 16.1785 27.4486 16.0264 27.3396 15.7707C27.1929 15.4302 27.3504 15.0332 27.6922 14.8865L30.0165 13.8879C30.3556 13.7438 30.7527 13.8973 30.8994 14.2405C31.0461 14.581 30.8886 14.978 30.5468 15.1247L28.2225 16.1233C28.1363 16.161 28.0475 16.1785 27.9573 16.1785Z" fill="#3961F0"/>
<path d="M36.3379 24.4097C36.0836 24.4097 35.8386 24.263 35.7256 24.0153C35.5721 23.6775 35.7215 23.2778 36.0593 23.1244L38.6353 21.9535C38.8749 21.8445 39.0296 21.6036 39.0296 21.3398V19.4744C39.0296 18.1286 38.2329 16.9187 37.0014 16.3924L34.0513 15.1112C33.7108 14.9632 33.5547 14.5675 33.7014 14.2256C33.8495 13.8838 34.2398 13.7277 34.587 13.8771L37.5331 15.1556C39.2584 15.8918 40.3755 17.5876 40.3755 19.4744V21.3398C40.3755 22.1285 39.9112 22.8498 39.1925 23.1782L36.6165 24.3491C36.5264 24.3895 36.4308 24.4097 36.3379 24.4097Z" fill="#3961F0"/>
<path d="M21.9508 6.61622C20.037 6.61622 18.0451 5.94194 16.9469 4.95409C16.6697 4.70511 16.6468 4.27982 16.8958 4.00392C17.1448 3.72802 17.5741 3.70514 17.846 3.95412C19.173 5.14655 22.3519 5.76968 24.1728 4.79259C24.4998 4.61628 24.909 4.73876 25.0839 5.06714C25.2602 5.39553 25.1364 5.80198 24.8094 5.97828C23.979 6.42107 22.9763 6.61622 21.9508 6.61622Z" fill="#3961F0"/>
<path d="M20.1783 18.8419C17.9456 18.8419 16.7814 17.1004 16.4772 16.1785C16.3601 15.8245 16.5526 15.445 16.9052 15.3279C17.2578 15.2121 17.636 15.4032 17.7531 15.7532C17.7814 15.8339 18.3776 17.4947 20.1783 17.4947C21.9939 17.4947 22.6332 15.7828 22.6614 15.7101C22.7866 15.3615 23.1769 15.1798 23.5201 15.3036C23.8686 15.4275 24.053 15.8083 23.9306 16.1583C23.8915 16.2686 22.9615 18.8419 20.1783 18.8419Z" fill="#3961F0"/>
<path d="M32.9733 24.2253C32.6019 24.2253 32.3004 23.9238 32.3004 23.5524V23.1769C32.3004 21.181 31.042 19.3964 29.17 18.7383L23.5564 16.7464C22.7489 16.4651 22.2065 15.7007 22.2065 14.8461V13.1907C22.2065 12.8192 22.508 12.5178 22.8795 12.5178C23.2509 12.5178 23.5524 12.8192 23.5524 13.1907V14.8461C23.5524 15.1287 23.7341 15.3817 24.0032 15.4759L29.6181 17.4691C32.0272 18.3157 33.6463 20.6104 33.6463 23.1769V23.5537C33.6463 23.9252 33.3448 24.2253 32.9733 24.2253Z" fill="#3961F0"/>
<path d="M7.40217 24.2253C7.03072 24.2253 6.72925 23.9238 6.72925 23.5524V23.189C6.72925 22.7691 6.77366 22.3479 6.86114 21.932C7.29451 19.8823 8.79378 18.173 10.7695 17.4678L16.3709 15.5029C16.6414 15.4086 16.8231 15.1543 16.8231 14.8717V13.1893C16.8231 12.8179 17.1246 12.5164 17.496 12.5164C17.8675 12.5164 18.169 12.8179 18.169 13.1893V14.8717C18.169 15.7249 17.6266 16.4894 16.8164 16.7733L11.219 18.7369C9.6807 19.2847 8.51519 20.6157 8.17738 22.2106C8.10874 22.5336 8.0751 22.8633 8.0751 23.189V23.5524C8.0751 23.9252 7.77363 24.2253 7.40217 24.2253Z" fill="#3961F0"/>
<path d="M20.1878 14.8043C19.8163 14.8043 19.5148 14.5029 19.5148 14.1314C19.5148 13.76 19.8163 13.4585 20.1878 13.4585C21.5847 13.4585 24.2253 12.1934 24.2253 7.40217V5.3834C24.2253 3.15736 22.4138 1.34585 20.1878 1.34585C17.9617 1.34585 16.1502 3.15736 16.1502 5.3834V7.40217C16.1502 9.72242 16.7706 11.4976 17.9429 12.5352C18.2215 12.7815 18.2484 13.2068 18.0007 13.4854C17.7518 13.7654 17.3278 13.7882 17.0519 13.5433C16.0264 12.6362 14.8044 10.8354 14.8044 7.40217V5.3834C14.8044 2.41445 17.2188 0 20.1878 0C23.1567 0 25.5711 2.41445 25.5711 5.3834V7.40217C25.5711 13.258 22.0504 14.8043 20.1878 14.8043Z" fill="#3961F0"/>
<path d="M30.4404 36.3379C30.1928 36.3379 29.9559 36.2007 29.8375 35.9638C29.6733 35.63 29.8092 35.2276 30.143 35.0621L33.4713 33.4134C33.6584 33.3205 33.8818 33.3205 34.0675 33.4134L36.2424 34.4914L35.8884 32.0904C35.8588 31.8832 35.9261 31.6719 36.0742 31.5225L37.774 29.785L35.3784 29.3772C35.1724 29.3422 34.9934 29.2117 34.8952 29.0259L33.7701 26.8753L32.6436 29.0259C32.5453 29.2117 32.3663 29.3422 32.1604 29.3772L29.7662 29.785L31.4646 31.5225C31.7244 31.789 31.719 32.2143 31.4539 32.474C31.1874 32.7351 30.7607 32.7297 30.5023 32.4632L27.9062 29.8079C27.7312 29.6289 27.6693 29.3678 27.7474 29.1296C27.8254 28.8914 28.0273 28.7164 28.275 28.6747L31.6073 28.1067L33.1752 25.1136C33.2923 24.8915 33.5224 24.7529 33.7714 24.7529C34.0231 24.7529 34.2505 24.8928 34.3676 25.1136L35.9342 28.1067L39.2679 28.6747C39.5155 28.7164 39.7174 28.8927 39.7954 29.1296C39.8735 29.3664 39.8116 29.6289 39.6366 29.8079L37.272 32.2237L37.7645 35.5668C37.7995 35.8144 37.6959 36.062 37.494 36.2087C37.2921 36.3568 37.023 36.3797 36.7996 36.2666L33.7714 34.766L30.7419 36.2666C30.6437 36.3164 30.5414 36.3379 30.4404 36.3379Z" fill="#3961F0"/>
<path d="M16.2525 40C16.1125 40 15.9739 39.9569 15.8568 39.8721C15.6549 39.7254 15.55 39.4778 15.5863 39.2288L16.1758 35.2142L13.3387 32.3125C13.1638 32.1335 13.1019 31.8724 13.1799 31.6342C13.258 31.396 13.4598 31.2197 13.7075 31.1793L17.71 30.4983L19.5915 26.9035C19.8257 26.4594 20.5511 26.4594 20.7853 26.9035L22.6668 30.4983L26.6694 31.1793C26.917 31.221 27.1189 31.3973 27.1969 31.6342C27.275 31.8711 27.2131 32.1335 27.0381 32.3125L24.1997 35.2142L24.7906 39.2288C24.8255 39.4765 24.7219 39.7241 24.52 39.8708C24.3182 40.0202 24.049 40.0404 23.8256 39.9287L20.1877 38.1266L16.5513 39.9287C16.4571 39.9758 16.3548 40 16.2525 40ZM15.1987 32.2896L17.3709 34.5116C17.5176 34.6624 17.5862 34.8723 17.5566 35.0796L17.1044 38.1521L19.889 36.7726C20.076 36.6784 20.2995 36.6784 20.4852 36.7726L23.2684 38.1521L22.8162 35.0796C22.7866 34.8723 22.8539 34.661 23.0019 34.5116L25.1755 32.2896L22.111 31.7674C21.9051 31.7324 21.7261 31.6019 21.6278 31.4162L20.1877 28.6639L18.7477 31.4162C18.6494 31.6019 18.4704 31.7324 18.2645 31.7674L15.1987 32.2896Z" fill="#3961F0"/>
<path d="M10.0441 36.3379C9.94314 36.3379 9.8422 36.3151 9.7453 36.268L6.71714 34.7673L3.68763 36.2693C3.46556 36.3797 3.19774 36.3581 2.99317 36.2101C2.79129 36.0634 2.68632 35.8158 2.72265 35.5681L3.21523 32.225L0.850577 29.8092C0.675616 29.6302 0.613707 29.3691 0.691767 29.1309C0.769826 28.8927 0.971703 28.7164 1.21934 28.676L4.55301 28.1081L6.12092 25.1149C6.23801 24.8928 6.46815 24.7542 6.71714 24.7542C6.96881 24.7542 7.19626 24.8942 7.31335 25.1149L8.87992 28.1081L12.2122 28.676C12.4599 28.7177 12.6618 28.894 12.7398 29.1309C12.8179 29.3678 12.756 29.6302 12.581 29.8092L9.98486 32.4632C9.7278 32.7297 9.30117 32.7351 9.03334 32.474C8.76821 32.2143 8.76283 31.789 9.02258 31.5225L10.721 29.785L8.32677 29.3772C8.11951 29.3422 7.94186 29.2117 7.84361 29.0259L6.71848 26.8753L5.59201 29.0259C5.49376 29.2117 5.31476 29.3422 5.10885 29.3772L2.71323 29.785L4.41304 31.5225C4.55974 31.6732 4.62838 31.8832 4.59877 32.0904L4.24481 34.4914L6.42105 33.4134C6.60812 33.3205 6.83153 33.3205 7.01726 33.4134L10.3442 35.0621C10.678 35.2276 10.8139 35.63 10.6497 35.9638C10.5286 36.2007 10.2904 36.3379 10.0441 36.3379Z" fill="#3961F0"/>
</svg>
