<svg width="41" height="40" viewBox="0 0 41 40" fill="none" xmlns="http://www.w3.org/2000/svg">
<path d="M39.6505 29.104L35.5517 27.0547L32.9431 20.2692C32.9124 20.189 32.8655 20.1159 32.8053 20.0547C32.7451 19.9934 32.6729 19.9452 32.5932 19.913L16.4074 13.4431C16.2943 13.3981 16.1704 13.3871 16.0511 13.4115C15.9317 13.4359 15.8221 13.4947 15.7358 13.5806L13.577 15.7393C13.4923 15.8257 13.4345 15.9349 13.4106 16.0536C13.3868 16.1723 13.3979 16.2954 13.4427 16.4078L19.9126 32.5936C19.9448 32.6733 19.993 32.7455 20.0542 32.8057C20.1155 32.8659 20.1885 32.9128 20.2688 32.9435L27.0542 35.5521L29.1036 39.6509C29.1468 39.7412 29.211 39.8199 29.2909 39.8803C29.3709 39.9406 29.4641 39.9809 29.5629 39.9976C29.5961 40.0007 29.6296 40.0007 29.6628 39.9976C29.8283 39.9969 29.9867 39.9307 30.1033 39.8133L39.8129 30.1037C39.8844 30.0348 39.9384 29.9498 39.9704 29.8558C40.0025 29.7618 40.0117 29.6615 39.9972 29.5633C39.9805 29.4645 39.9402 29.3713 39.8799 29.2914C39.8195 29.2114 39.7408 29.1472 39.6505 29.104ZM14.7517 16.3266L15.0985 15.983L23.1554 24.0399C22.6244 24.7923 22.3951 25.7166 22.5128 26.6299C22.6305 27.5433 23.0866 28.3792 23.7909 28.9725C24.4953 29.5657 25.3966 29.8731 26.3167 29.8337C27.2367 29.7944 28.1085 29.4113 28.7597 28.7601C29.4109 28.1089 29.794 27.2371 29.8333 26.3171C29.8726 25.397 29.5653 24.4957 28.9721 23.7913C28.3788 23.087 27.5429 22.6309 26.6295 22.5132C25.7162 22.3955 24.7919 22.6248 24.0395 23.1558L15.9826 15.0989L16.3262 14.7521L31.8747 20.9721L34.3271 27.3514L27.351 34.3275L20.9717 31.8751L14.7517 16.3266ZM26.1576 23.7306C26.7192 23.7315 27.2631 23.927 27.6966 24.2838C28.1302 24.6407 28.4266 25.1369 28.5354 25.6878C28.6442 26.2387 28.5586 26.8103 28.2933 27.3051C28.0279 27.8 27.5992 28.1876 27.0801 28.4018C26.561 28.6161 25.9837 28.6437 25.4466 28.4801C24.9094 28.3164 24.4456 27.9716 24.1341 27.5043C23.8227 27.037 23.6829 26.4762 23.7386 25.9174C23.7942 25.3587 24.0419 24.8365 24.4394 24.4398C24.8956 23.9851 25.5135 23.73 26.1576 23.7306ZM29.8347 38.3169L28.2726 35.1928L35.1862 28.2793L38.3102 29.8413L29.8347 38.3169Z" fill="#3961F0"/>
<path d="M11.9588 33.4372C11.8393 33.3242 11.6811 33.2613 11.5167 33.2613C11.3523 33.2613 11.1942 33.3242 11.0747 33.4372L10.2812 34.2307C8.1636 31.3567 6.99542 27.8937 6.93942 24.3243C6.88342 20.7549 7.9424 17.2569 9.96875 14.3179C10.5758 14.652 11.2749 14.7803 11.961 14.6836C12.6472 14.587 13.2836 14.2706 13.7748 13.7818C14.266 13.2931 14.5856 12.6583 14.6857 11.9727C14.7858 11.287 14.6609 10.5873 14.3299 9.97858C17.2689 7.95222 20.7669 6.89325 24.3363 6.94925C27.9057 7.00525 31.3687 8.17343 34.2427 10.291L33.4367 11.0751C33.3205 11.1923 33.2554 11.3506 33.2555 11.5156C33.255 11.5978 33.2708 11.6794 33.3019 11.7555C33.333 11.8316 33.3788 11.9008 33.4367 11.9592L36.1921 14.6928C36.3092 14.8092 36.4676 14.8745 36.6326 14.8745C36.7977 14.8745 36.956 14.8092 37.0731 14.6928L39.8129 11.953C39.871 11.895 39.9171 11.826 39.9485 11.7502C39.98 11.6743 39.9962 11.593 39.9962 11.5109C39.9962 11.4288 39.98 11.3475 39.9485 11.2717C39.9171 11.1958 39.871 11.1269 39.8129 11.0689L37.0731 8.32907C36.956 8.2127 36.7977 8.14738 36.6326 8.14738C36.4676 8.14738 36.3092 8.2127 36.1921 8.32907L35.1331 9.38188C32.5229 7.41777 29.4371 6.18377 26.1923 5.80659C22.9476 5.42941 19.6609 5.92265 16.6699 7.23565L20.2719 3.64298C20.6803 3.83813 21.1447 3.88231 21.5826 3.76766C22.0205 3.65302 22.4036 3.38698 22.664 3.01673C22.9244 2.64648 23.0452 2.19596 23.005 1.74509C22.9649 1.29423 22.7663 0.872167 22.4445 0.553787C22.1228 0.235407 21.6987 0.0412896 21.2474 0.00587338C20.7961 -0.0295428 20.3469 0.0960315 19.9794 0.360319C19.6119 0.624606 19.3499 1.01052 19.2399 1.4496C19.1299 1.88867 19.179 2.35253 19.3784 2.75887L13.299 8.84767C12.6817 8.43361 11.9399 8.2467 11.2001 8.31889C10.4603 8.39107 9.76857 8.71787 9.24299 9.24344C8.71741 9.76902 8.39062 10.4608 8.31844 11.2005C8.24625 11.9403 8.43315 12.6822 8.84721 13.2995L2.75842 19.3789C2.35049 19.1801 1.88529 19.1324 1.4455 19.2442C1.00571 19.356 0.619804 19.6201 0.356358 19.9896C0.0929114 20.3591 -0.0310131 20.81 0.00660533 21.2622C0.0442238 21.7145 0.240949 22.1387 0.561823 22.4596C0.882697 22.7805 1.30694 22.9772 1.75916 23.0148C2.21138 23.0524 2.6623 22.9285 3.03178 22.665C3.40126 22.4016 3.66538 22.0157 3.7772 21.5759C3.88902 21.1361 3.8413 20.6709 3.64253 20.263L7.24457 16.6703C5.93025 19.6606 5.43546 22.9468 5.81099 26.1915C6.18652 29.4362 7.41884 32.5225 9.38143 35.1335L8.3255 36.1926C8.20912 36.3096 8.1438 36.468 8.1438 36.6331C8.1438 36.7981 8.20912 36.9565 8.3255 37.0736L11.0653 39.8134C11.1819 39.9307 11.3403 39.997 11.5058 39.9977C11.5882 39.9977 11.6699 39.9815 11.746 39.9499C11.8222 39.9182 11.8913 39.8718 11.9494 39.8134L14.6923 37.0736C14.8087 36.9565 14.874 36.7981 14.874 36.6331C14.874 36.468 14.8087 36.3096 14.6923 36.1926L11.9588 33.4372ZM36.6389 9.64743L38.4946 11.5031L36.6389 13.3588L34.7832 11.5031L36.6389 9.64743ZM20.628 1.45614C20.7209 1.36253 20.8395 1.29862 20.9687 1.2725C21.0979 1.24639 21.232 1.25925 21.3539 1.30946C21.4758 1.35966 21.58 1.44495 21.6534 1.55449C21.7267 1.66404 21.7659 1.79291 21.7659 1.92474C21.7659 2.05658 21.7267 2.18545 21.6534 2.295C21.58 2.40454 21.4758 2.48983 21.3539 2.54003C21.232 2.59024 21.0979 2.6031 20.9687 2.57698C20.8395 2.55087 20.7209 2.48696 20.628 2.39335C20.5665 2.33184 20.5176 2.2588 20.4843 2.17839C20.4509 2.09798 20.4338 2.01179 20.4338 1.92474C20.4338 1.8377 20.4509 1.75151 20.4843 1.6711C20.5176 1.59069 20.5665 1.51765 20.628 1.45614ZM10.1312 10.1317C10.3126 9.94935 10.5283 9.80469 10.7658 9.70598C11.0033 9.60727 11.258 9.55646 11.5152 9.55646C11.7724 9.55646 12.027 9.60727 12.2645 9.70598C12.502 9.80469 12.7177 9.94935 12.8991 10.1317C13.1734 10.4055 13.3602 10.7545 13.4361 11.1345C13.5119 11.5146 13.4733 11.9086 13.3251 12.2667C13.177 12.6248 12.9259 12.9309 12.6037 13.1463C12.2815 13.3617 11.9027 13.4766 11.5152 13.4766C11.1276 13.4766 10.7488 13.3617 10.4266 13.1463C10.1044 12.9309 9.85334 12.6248 9.70518 12.2667C9.55702 11.9086 9.51841 11.5146 9.59424 11.1345C9.67008 10.7545 9.85695 10.4055 10.1312 10.1317ZM2.39603 21.5657C2.26847 21.6721 2.10574 21.7269 1.93982 21.7194C1.77389 21.7119 1.61677 21.6426 1.49933 21.5252C1.38188 21.4078 1.3126 21.2506 1.3051 21.0847C1.29761 20.9188 1.35243 20.7561 1.45881 20.6285C1.58384 20.5056 1.75212 20.4368 1.92742 20.4368C2.10272 20.4368 2.271 20.5056 2.39603 20.6285C2.45761 20.69 2.50647 20.7631 2.53981 20.8435C2.57314 20.9239 2.5903 21.0101 2.5903 21.0971C2.5903 21.1842 2.57314 21.2703 2.53981 21.3508C2.50647 21.4312 2.45761 21.5042 2.39603 21.5657ZM11.5152 38.4763L9.65947 36.6206L11.5152 34.7649L13.3709 36.6206L11.5152 38.4763Z" fill="#3961F0"/>
</svg>
