<svg width="39" height="40" viewBox="0 0 39 40" fill="none" xmlns="http://www.w3.org/2000/svg">
<path fill-rule="evenodd" clip-rule="evenodd" d="M19.1019 12.2947C22.9269 12.2947 26.3903 13.8452 28.8968 16.3525C31.4033 18.859 32.9546 22.3224 32.9546 26.1482C32.9546 29.9739 31.4041 33.4365 28.8968 35.943C26.3895 38.4495 22.9269 40 19.1019 40C15.277 40 11.8136 38.4495 9.30628 35.943C6.79976 33.4365 5.24929 29.9731 5.24929 26.1482C5.24929 22.3232 6.79976 18.8598 9.30628 16.3525C11.8136 13.8452 15.277 12.2947 19.1019 12.2947ZM5.90612 4.71116C5.85332 4.54395 5.72371 4.40395 5.5437 4.34634C5.25009 4.25194 4.93567 4.41355 4.84127 4.70716L3.83562 7.8241L0.600273 7.81771C0.413864 7.8041 0.224256 7.88491 0.10665 8.04732C-0.0749583 8.29773 -0.0189557 8.64734 0.231456 8.82815L2.88518 10.7482L1.86673 13.862L1.86833 13.8628C1.81553 14.0268 1.83873 14.2132 1.94754 14.3636C2.12914 14.6124 2.47716 14.6676 2.72597 14.486L5.37329 12.5547L7.98622 14.4604C8.12942 14.582 8.33023 14.6284 8.52144 14.566C8.81505 14.4708 8.97586 14.1548 8.87986 13.862L7.86141 10.7482L10.5151 8.82815L10.5143 8.82735C10.6543 8.72575 10.7447 8.56174 10.7447 8.37533C10.7447 8.06732 10.4951 7.81771 10.1871 7.81771L6.91097 7.8241L5.90612 4.71116ZM5.97252 8.55294L5.37249 6.69525L4.77247 8.55294C4.70046 8.77775 4.49005 8.94016 4.24124 8.94016L2.28755 8.93616L3.87002 10.081C4.06123 10.2194 4.15004 10.4698 4.07323 10.7066L3.46601 12.5643L5.03568 11.4195C5.22689 11.2747 5.4973 11.2643 5.70131 11.4131L7.27978 12.5643L6.67896 10.7274C6.59415 10.4978 6.66775 10.2314 6.87576 10.081L8.45824 8.93616L6.53095 8.94016C6.28454 8.95216 6.05173 8.79855 5.97252 8.55294ZM33.3634 4.71116C33.3106 4.54395 33.181 4.40395 33.001 4.34634C32.7074 4.25194 32.3929 4.41355 32.2985 4.70716L31.2929 7.8241L28.0575 7.81771C27.8711 7.8041 27.6815 7.88491 27.5639 8.04732C27.3823 8.29773 27.4383 8.64734 27.6887 8.82815L30.3425 10.7482L29.324 13.862L29.3256 13.8628C29.2728 14.0268 29.296 14.2132 29.4048 14.3636C29.5864 14.6124 29.9344 14.6676 30.1832 14.486L32.8306 12.5547L35.4435 14.4604C35.5867 14.582 35.7875 14.6284 35.9787 14.566C36.2723 14.4708 36.4331 14.1548 36.3371 13.862L35.3187 10.7482L37.9724 8.82815L37.9716 8.82735C38.1116 8.72575 38.202 8.56174 38.202 8.37533C38.202 8.06732 37.9524 7.81771 37.6444 7.81771L34.3682 7.8241L33.3634 4.71116ZM33.4306 8.55294L32.8306 6.69525L32.2305 8.55294C32.1585 8.77775 31.9481 8.94016 31.6993 8.94016L29.7456 8.93616L31.3281 10.081C31.5193 10.2194 31.6081 10.4698 31.5313 10.7066L30.9241 12.5643L32.4938 11.4195C32.685 11.2747 32.9554 11.2643 33.1594 11.4131L34.7379 12.5643L34.137 10.7274C34.0522 10.4978 34.1258 10.2314 34.3338 10.081L35.9163 8.93616L33.989 8.94016C33.7418 8.95216 33.509 8.79855 33.4306 8.55294ZM19.6348 0.39176L20.6396 3.5047L23.9158 3.4983C24.2238 3.4983 24.4734 3.74792 24.4734 4.05593C24.4734 4.24154 24.3822 4.40635 24.243 4.50795L24.2438 4.50875L21.59 6.42884L22.6085 9.54259C22.7037 9.8362 22.5437 10.1514 22.2501 10.2466C22.0589 10.309 21.8581 10.2618 21.7149 10.141L19.1019 8.23532L16.4546 10.1666C16.2058 10.3482 15.857 10.293 15.6762 10.0442C15.5666 9.8938 15.5434 9.70739 15.597 9.54339L15.5954 9.54259L16.6138 6.42884L13.9601 4.50875C13.7097 4.32714 13.6545 3.97753 13.8353 3.72792C13.9529 3.56551 14.1425 3.4847 14.3289 3.4983L17.5643 3.5047L18.5707 0.38776C18.6651 0.0941463 18.9795 -0.0674612 19.2731 0.0269432C19.4523 0.0845459 19.582 0.224552 19.6348 0.39176ZM19.702 4.23354L19.1019 2.37585L18.5019 4.23354C18.4299 4.45835 18.2195 4.62076 17.9707 4.62076L16.0178 4.61676L17.6003 5.76161C17.7915 5.90002 17.8803 6.15043 17.8035 6.38724L17.1962 8.24492L18.7659 7.10007C18.9571 6.95527 19.2275 6.94486 19.4315 7.09367L21.01 8.24492L20.4092 6.40804C20.3244 6.17843 20.398 5.91202 20.606 5.76161L22.1885 4.61676L20.2612 4.62076C20.0132 4.63196 19.7804 4.47915 19.702 4.23354ZM16.0362 23.8625L16.0474 31.1148H23.3317C23.5749 31.1148 23.7973 31.0332 23.9686 30.8932C24.1406 30.7524 24.2654 30.5524 24.3142 30.3156L25.3966 25.0441C25.4286 24.8889 25.427 24.7401 25.3926 24.6017C25.3582 24.4633 25.291 24.3305 25.1902 24.2073C25.091 24.0849 24.975 23.9929 24.847 23.9321C24.7198 23.8713 24.5742 23.8409 24.4134 23.8409H20.5876C20.278 23.8409 20.0276 23.5904 20.0276 23.2808C20.0276 23.2 20.0444 23.124 20.0756 23.0544L20.1972 22.7088C20.8036 20.9823 21.1252 20.0663 20.282 19.283C20.1972 19.2038 20.1044 19.151 20.0084 19.1246C19.9124 19.0982 19.8044 19.0966 19.69 19.1214C19.5756 19.1462 19.4779 19.1918 19.4019 19.255C19.3251 19.319 19.2627 19.4054 19.2187 19.5126L17.7155 23.1112C17.4131 23.8345 16.6858 23.8857 16.0362 23.8625ZM14.9321 31.598L14.9193 23.3328C14.8097 22.744 13.8177 22.608 13.8177 23.6456V31.3652C13.8177 32.302 14.6817 32.4516 14.9321 31.598ZM23.3317 32.2348C23.8373 32.2348 24.3046 32.0596 24.6734 31.7596C25.0406 31.4596 25.3062 31.0364 25.4086 30.5396L26.4911 25.2681C26.5567 24.9481 26.5519 24.6345 26.4783 24.3353C26.4047 24.0369 26.2639 23.7568 26.0575 23.5032C25.8502 23.2488 25.6038 23.0544 25.3246 22.9216C25.0454 22.7888 24.739 22.7208 24.4142 22.7208H21.3764C22.0557 20.7703 22.3453 19.6735 21.0436 18.4646C20.8268 18.263 20.5748 18.123 20.302 18.0478C20.0292 17.9726 19.742 17.9646 19.4539 18.027C19.1651 18.0894 18.9075 18.2158 18.6891 18.3974C18.4715 18.5782 18.3003 18.8102 18.1859 19.0838L16.6826 22.6824C16.6458 22.7712 16.2434 22.756 15.8978 22.7384C15.1969 21.1671 12.6968 21.5039 12.6968 23.6464V31.366C12.6968 33.4373 15.0753 33.9789 15.8826 32.2348H23.3317ZM19.1019 14.6324C15.9226 14.6324 13.0433 15.9213 10.96 18.0054C8.87586 20.0895 7.587 22.968 7.587 26.1474C7.587 29.3267 8.87586 32.206 10.96 34.2893C13.0441 36.3734 15.9226 37.6623 19.1019 37.6623C22.2813 37.6623 25.1606 36.3734 27.2439 34.2893C29.328 32.2052 30.6169 29.3267 30.6169 26.1474C30.6169 22.968 29.328 20.0887 27.2439 18.0054C25.1606 15.9213 22.2813 14.6324 19.1019 14.6324ZM26.4519 18.7974C24.571 16.9165 21.9725 15.7525 19.1019 15.7525C16.2314 15.7525 13.6329 16.9157 11.7512 18.7974C9.8703 20.6783 8.70625 23.2768 8.70625 26.1474C8.70625 29.0179 9.8695 31.6164 11.7512 33.4981C13.6321 35.379 16.2314 36.543 19.1019 36.543C21.9725 36.543 24.571 35.3798 26.4519 33.4981C28.3328 31.6172 29.4968 29.0179 29.4968 26.1474C29.4968 23.2768 28.3336 20.6783 26.4519 18.7974ZM28.1055 17.1437C25.8014 14.8396 22.6181 13.4148 19.1019 13.4148C15.5858 13.4148 12.4024 14.8396 10.0983 17.1437C7.79421 19.4478 6.36934 22.6312 6.36934 26.1474C6.36934 29.6635 7.79421 32.8469 10.0983 35.151C12.4024 37.4551 15.5858 38.8799 19.1019 38.8799C22.6181 38.8799 25.8014 37.4551 28.1055 35.151C30.4097 32.8469 31.8345 29.6635 31.8345 26.1474C31.8345 22.6312 30.4097 19.4478 28.1055 17.1437Z" fill="#3961F0"/>
</svg>
