<svg width="40" height="40" viewBox="0 0 40 40" fill="none" xmlns="http://www.w3.org/2000/svg">
<path d="M3.57006 34.288H6.42605C6.8204 34.288 7.14003 34.6076 7.14003 35.002V35.4661C7.13702 35.5632 7.19358 35.6524 7.28286 35.691C7.36595 35.7333 7.46636 35.7211 7.53706 35.6603L9.90324 33.7717C10.0124 33.686 10.0316 33.5281 9.94591 33.4189C9.93344 33.403 9.91913 33.3887 9.90324 33.3762L7.53915 31.4905C7.46861 31.4272 7.36653 31.4139 7.28211 31.4569C7.19291 31.4955 7.13627 31.5847 7.13928 31.6818V32.146C7.13928 32.5403 6.81957 32.8599 6.4253 32.8599H4.28404C2.70672 32.8599 1.42804 31.5813 1.42804 30.004V23.5779C1.42804 22.0006 2.70672 20.7219 4.28404 20.7219H9.28205C9.6764 20.7219 9.99603 20.4023 9.99603 20.0079C9.99603 19.6136 9.67632 19.2939 9.28205 19.2939H3.57006C1.5994 19.2963 0.0024265 20.8933 0 22.864V30.7181C0.00234283 32.6886 1.59932 34.2856 3.57006 34.288Z" fill="#3961F0"/>
<path d="M6.42605 12.8678C7.68306 12.8686 8.91229 12.4983 9.95962 11.8033C9.7886 10.7725 8.89891 10.0155 7.854 10.0118H4.99809C3.95327 10.0155 3.0635 10.7725 2.89247 11.8033C3.9398 12.4983 5.16903 12.8686 6.42605 12.8678Z" fill="#3961F0"/>
<path d="M6.42605 8.5837C8.00337 8.5837 9.28205 7.30502 9.28205 5.7277C9.28205 4.15038 8.00337 2.8717 6.42605 2.8717C4.84873 2.8717 3.57005 4.15038 3.57005 5.7277C3.57005 7.30502 4.84873 8.5837 6.42605 8.5837Z" fill="#3961F0"/>
<path d="M3.55366 8.89723C1.7983 7.3108 1.66133 4.60181 3.24776 2.84645C4.83419 1.09108 7.54317 0.954106 9.29854 2.54054C11.0539 4.12697 11.1909 6.83595 9.60445 8.59132C9.50772 8.69842 9.40556 8.8005 9.29854 8.89723C10.1323 9.26924 10.7933 9.94472 11.1471 10.7865C13.5553 8.17948 13.3941 4.114 10.7872 1.70582C8.18034 -0.70236 4.11469 -0.54129 1.70651 2.0657C-0.56788 4.52776 -0.56788 8.3244 1.70651 10.7865C2.05977 9.94489 2.7202 9.2694 3.55366 8.89723Z" fill="#3961F0"/>
<path d="M14.9941 34.288H22.1342C22.5285 34.288 22.8481 34.6076 22.8481 35.002V35.4661C22.8451 35.5632 22.9017 35.6524 22.991 35.691C23.074 35.7333 23.1745 35.7211 23.2452 35.6603L25.6113 33.7717C25.6717 33.7242 25.7062 33.6508 25.7041 33.5739C25.7045 33.4977 25.6694 33.4257 25.6092 33.379L23.2451 31.4932C23.1745 31.43 23.0725 31.4167 22.988 31.4597C22.8988 31.4983 22.8422 31.5875 22.8452 31.6846V32.1459C22.8452 32.5402 22.5256 32.8599 22.1312 32.8599H14.994C14.5997 32.8599 14.2801 33.1795 14.2801 33.5738C14.2801 33.9682 14.5998 34.288 14.9941 34.288Z" fill="#3961F0"/>
<path d="M16.9934 17.8909C16.961 17.8753 16.9258 17.8668 16.8899 17.8658C16.8356 17.867 16.7834 17.887 16.7421 17.9222L14.3766 19.8101C14.267 19.8965 14.2482 20.0554 14.3346 20.165C14.3469 20.1806 14.3611 20.1947 14.3766 20.207L16.7393 22.092C16.8091 22.1566 16.9122 22.17 16.9963 22.1255C17.0855 22.087 17.1422 21.9978 17.1392 21.9006V21.4358C17.1392 21.0415 17.4589 20.7218 17.8531 20.7218H24.9903C25.3847 20.7218 25.7043 20.4022 25.7043 20.0079C25.7043 19.6135 25.3847 19.2939 24.9903 19.2939H17.8503C17.4559 19.2939 17.1363 18.9743 17.1363 18.5799V18.1165C17.1395 18.019 17.0828 17.9295 16.9934 17.8909Z" fill="#3961F0"/>
<path d="M36.4143 5.72766H14.2437C14.2652 5.96328 14.2801 6.20033 14.2801 6.44164C14.2801 6.68295 14.2652 6.91999 14.2437 7.15562H35.7003C37.2776 7.15562 38.5563 8.4343 38.5563 10.0116V16.4377C38.5563 18.015 37.2776 19.2937 35.7003 19.2937H33.5583C33.164 19.2937 32.8443 18.974 32.8443 18.5797V18.1156C32.8473 18.0184 32.7908 17.9292 32.7015 17.8906C32.6186 17.8471 32.5175 17.8593 32.4473 17.9213L30.0811 19.8099C29.9721 19.8971 29.9544 20.0562 30.0415 20.1652C30.0533 20.1798 30.0665 20.1931 30.0811 20.2048L32.4459 22.0912C32.5157 22.1558 32.6188 22.1692 32.7029 22.1247C32.7921 22.0861 32.8488 21.997 32.8457 21.8998V21.4357C32.8457 21.0413 33.1654 20.7217 33.5597 20.7217H36.4157C38.3864 20.7194 39.9834 19.1224 39.9858 17.1516V9.29755C39.9834 7.32648 38.3855 5.72925 36.4143 5.72766Z" fill="#3961F0"/>
<path d="M33.5583 27.1479C30.0126 27.1519 27.1385 30.024 27.1323 33.5697V33.5783C27.1346 37.1272 30.0136 40.0024 33.5626 40.0001C37.1116 39.9977 39.9867 37.1187 39.9844 33.5697C39.982 30.0224 37.1056 27.1479 33.5583 27.1479ZM36.9191 31.9368L32.6351 36.2208C32.3563 36.4995 31.9043 36.4995 31.6255 36.2208L30.1974 34.7928C29.9235 34.5091 29.9313 34.0571 30.2149 33.7832C30.4916 33.5159 30.9303 33.5159 31.207 33.7832L32.1303 34.7064L35.9095 30.9272C36.1932 30.6532 36.6452 30.661 36.9191 30.9447C37.1864 31.2214 37.1864 31.6601 36.9191 31.9368Z" fill="#3961F0"/>
</svg>
